<svg xmlns="http://www.w3.org/2000/svg" xmlns:xlink="http://www.w3.org/1999/xlink" width="2000" zoomAndPan="magnify" viewBox="0 0 1500 749.999995" height="1000" preserveAspectRatio="xMidYMid meet" version="1.0"><defs><g/></defs><rect x="-150" width="1800" fill="#ffffff" y="-74.999999" height="899.999994" fill-opacity="1"/><rect x="-150" width="1800" fill="#1800ad" y="-74.999999" height="899.999994" fill-opacity="1"/><g fill="#ffffff" fill-opacity="1"><g transform="translate(183.10652, 358.878694)"><g><path d="M 73.265625 0 C 64.242188 0 59.734375 -4.578125 59.734375 -13.734375 L 59.734375 -115.296875 C 59.734375 -119.046875 58.378906 -122.238281 55.671875 -124.875 C 52.960938 -127.507812 49.664062 -128.828125 45.78125 -128.828125 L 27.46875 -128.828125 C 18.3125 -128.828125 13.734375 -133.40625 13.734375 -142.5625 L 13.734375 -152.96875 C 13.734375 -162.125 18.3125 -166.703125 27.46875 -166.703125 L 137.578125 -166.5 C 146.734375 -166.5 151.3125 -161.921875 151.3125 -152.765625 L 151.3125 -142.5625 C 151.3125 -133.40625 146.734375 -128.828125 137.578125 -128.828125 L 119.046875 -128.828125 C 115.296875 -128.828125 112.066406 -127.507812 109.359375 -124.875 C 106.660156 -122.238281 105.3125 -119.046875 105.3125 -115.296875 L 105.3125 -13.53125 C 105.3125 -4.507812 100.734375 0 91.578125 0 Z M 73.265625 0 "/></g></g></g><g fill="#ffffff" fill-opacity="1"><g transform="translate(327.544821, 358.878694)"><g><path d="M 27.6875 0 C 23.800781 0 20.503906 -1.347656 17.796875 -4.046875 C 15.085938 -6.753906 13.734375 -10.050781 13.734375 -13.9375 L 13.734375 -152.5625 C 13.734375 -156.582031 15.085938 -159.910156 17.796875 -162.546875 C 20.503906 -165.179688 23.800781 -166.5 27.6875 -166.5 L 45.375 -166.5 C 49.394531 -166.5 52.722656 -165.179688 55.359375 -162.546875 C 57.992188 -159.910156 59.3125 -156.582031 59.3125 -152.5625 L 59.3125 -115.296875 C 59.3125 -111.410156 60.628906 -108.148438 63.265625 -105.515625 C 65.898438 -102.878906 69.09375 -101.5625 72.84375 -101.5625 C 76.726562 -101.5625 79.988281 -102.878906 82.625 -105.515625 C 85.257812 -108.148438 86.578125 -111.410156 86.578125 -115.296875 L 86.578125 -152.5625 C 86.578125 -156.582031 87.929688 -159.910156 90.640625 -162.546875 C 93.347656 -165.179688 96.644531 -166.5 100.53125 -166.5 L 118.21875 -166.5 C 122.238281 -166.5 125.566406 -165.179688 128.203125 -162.546875 C 130.835938 -159.910156 132.15625 -156.582031 132.15625 -152.5625 L 132.15625 -13.9375 C 132.15625 -10.050781 130.835938 -6.753906 128.203125 -4.046875 C 125.566406 -1.347656 122.238281 0 118.21875 0 L 100.53125 0 C 96.644531 0 93.347656 -1.347656 90.640625 -4.046875 C 87.929688 -6.753906 86.578125 -10.050781 86.578125 -13.9375 L 86.578125 -51.203125 C 86.578125 -55.085938 85.257812 -58.378906 82.625 -61.078125 C 79.988281 -63.785156 76.726562 -65.140625 72.84375 -65.140625 C 69.09375 -65.140625 65.898438 -63.820312 63.265625 -61.1875 C 60.628906 -58.550781 59.3125 -55.289062 59.3125 -51.40625 L 59.3125 -13.9375 C 59.3125 -10.050781 57.992188 -6.753906 55.359375 -4.046875 C 52.722656 -1.347656 49.394531 0 45.375 0 Z M 27.6875 0 "/></g></g></g><g fill="#ffffff" fill-opacity="1"><g transform="translate(452.83567, 358.878694)"><g><path d="M 27.6875 0 C 23.800781 0 20.503906 -1.347656 17.796875 -4.046875 C 15.085938 -6.753906 13.734375 -10.050781 13.734375 -13.9375 L 13.734375 -152.5625 C 13.734375 -156.582031 15.085938 -159.910156 17.796875 -162.546875 C 20.503906 -165.179688 23.800781 -166.5 27.6875 -166.5 L 149.640625 -166.5 C 153.660156 -166.5 156.988281 -165.179688 159.625 -162.546875 C 162.269531 -159.910156 163.59375 -156.582031 163.59375 -152.5625 L 163.59375 -142.78125 C 163.59375 -138.894531 162.269531 -135.597656 159.625 -132.890625 C 156.988281 -130.179688 153.660156 -128.828125 149.640625 -128.828125 L 72.84375 -128.828125 C 69.09375 -128.828125 65.898438 -127.507812 63.265625 -124.875 C 60.628906 -122.238281 59.3125 -118.976562 59.3125 -115.09375 C 59.3125 -111.34375 60.628906 -108.148438 63.265625 -105.515625 C 65.898438 -102.878906 69.09375 -101.5625 72.84375 -101.5625 L 141.3125 -101.5625 C 145.34375 -101.5625 148.675781 -100.242188 151.3125 -97.609375 C 153.945312 -94.972656 155.265625 -91.644531 155.265625 -87.625 L 155.265625 -79.296875 C 155.265625 -75.273438 153.910156 -71.910156 151.203125 -69.203125 C 148.492188 -66.492188 145.195312 -65.140625 141.3125 -65.140625 L 72.84375 -65.140625 C 69.09375 -65.140625 65.898438 -63.785156 63.265625 -61.078125 C 60.628906 -58.378906 59.3125 -55.15625 59.3125 -51.40625 C 59.3125 -47.519531 60.628906 -44.257812 63.265625 -41.625 C 65.898438 -38.988281 69.09375 -37.671875 72.84375 -37.671875 L 149.640625 -37.671875 C 153.660156 -37.671875 156.988281 -36.351562 159.625 -33.71875 C 162.269531 -31.082031 163.59375 -27.75 163.59375 -23.71875 L 163.59375 -13.9375 C 163.59375 -10.050781 162.269531 -6.753906 159.625 -4.046875 C 156.988281 -1.347656 153.660156 0 149.640625 0 Z M 27.6875 0 "/></g></g></g><g fill="#ff3131" fill-opacity="1"><g transform="translate(609.563535, 358.878694)"><g><path d="M 64.734375 0 C 54.878906 0 46.097656 -2.179688 38.390625 -6.546875 C 30.691406 -10.921875 24.65625 -16.957031 20.28125 -24.65625 C 15.914062 -32.363281 13.734375 -41.140625 13.734375 -50.984375 L 13.734375 -115.515625 C 13.734375 -125.359375 15.914062 -134.128906 20.28125 -141.828125 C 24.65625 -149.535156 30.691406 -155.570312 38.390625 -159.9375 C 46.097656 -164.3125 54.878906 -166.5 64.734375 -166.5 L 118.21875 -166.5 C 122.238281 -166.5 125.566406 -165.179688 128.203125 -162.546875 C 130.835938 -159.910156 132.15625 -156.582031 132.15625 -152.5625 L 132.15625 -142.5625 C 132.15625 -138.675781 130.800781 -135.414062 128.09375 -132.78125 C 125.394531 -130.144531 122.101562 -128.828125 118.21875 -128.828125 L 72.84375 -128.828125 C 69.09375 -128.828125 65.898438 -127.507812 63.265625 -124.875 C 60.628906 -122.238281 59.3125 -118.976562 59.3125 -115.09375 L 59.3125 -51.40625 C 59.3125 -47.519531 60.628906 -44.257812 63.265625 -41.625 C 65.898438 -38.988281 69.09375 -37.671875 72.84375 -37.671875 C 76.59375 -37.671875 79.816406 -38.988281 82.515625 -41.625 C 85.222656 -44.257812 86.578125 -47.519531 86.578125 -51.40625 L 86.578125 -85.546875 C 86.578125 -89.703125 87.960938 -93.0625 90.734375 -95.625 C 93.515625 -98.195312 96.847656 -99.484375 100.734375 -99.484375 L 118.421875 -99.484375 C 122.441406 -99.484375 125.734375 -98.128906 128.296875 -95.421875 C 130.867188 -92.710938 132.15625 -89.347656 132.15625 -85.328125 L 132.15625 -13.9375 C 132.15625 -9.914062 130.800781 -6.585938 128.09375 -3.953125 C 125.394531 -1.316406 122.101562 0 118.21875 0 Z M 64.734375 0 "/></g></g></g><g fill="#ff3131" fill-opacity="1"><g transform="translate(734.854384, 358.878694)"><g><path d="M 27.6875 0 C 23.800781 0 20.503906 -1.347656 17.796875 -4.046875 C 15.085938 -6.753906 13.734375 -10.050781 13.734375 -13.9375 L 13.734375 -115.515625 C 13.734375 -125.359375 15.914062 -134.128906 20.28125 -141.828125 C 24.65625 -149.535156 30.691406 -155.570312 38.390625 -159.9375 C 46.097656 -164.3125 54.878906 -166.5 64.734375 -166.5 L 81.171875 -166.5 C 91.023438 -166.5 99.800781 -164.3125 107.5 -159.9375 C 115.195312 -155.570312 121.226562 -149.535156 125.59375 -141.828125 C 129.96875 -134.128906 132.15625 -125.359375 132.15625 -115.515625 L 132.15625 -13.9375 C 132.15625 -10.050781 130.835938 -6.753906 128.203125 -4.046875 C 125.566406 -1.347656 122.238281 0 118.21875 0 L 100.53125 0 C 96.644531 0 93.347656 -1.347656 90.640625 -4.046875 C 87.929688 -6.753906 86.578125 -10.050781 86.578125 -13.9375 L 86.578125 -38.71875 C 86.578125 -42.457031 85.257812 -45.644531 82.625 -48.28125 C 79.988281 -50.914062 76.726562 -52.234375 72.84375 -52.234375 C 69.09375 -52.234375 65.898438 -50.914062 63.265625 -48.28125 C 60.628906 -45.644531 59.3125 -42.382812 59.3125 -38.5 L 59.3125 -13.9375 C 59.3125 -10.050781 57.992188 -6.753906 55.359375 -4.046875 C 52.722656 -1.347656 49.394531 0 45.375 0 Z M 72.84375 -79.71875 C 76.726562 -79.71875 79.988281 -81.035156 82.625 -83.671875 C 85.257812 -86.304688 86.578125 -89.492188 86.578125 -93.234375 L 86.578125 -115.09375 C 86.578125 -118.976562 85.257812 -122.238281 82.625 -124.875 C 79.988281 -127.507812 76.726562 -128.828125 72.84375 -128.828125 C 69.09375 -128.828125 65.898438 -127.507812 63.265625 -124.875 C 60.628906 -122.238281 59.3125 -118.976562 59.3125 -115.09375 L 59.3125 -93.234375 C 59.3125 -89.492188 60.628906 -86.304688 63.265625 -83.671875 C 65.898438 -81.035156 69.09375 -79.71875 72.84375 -79.71875 Z M 72.84375 -79.71875 "/></g></g></g><g fill="#ff3131" fill-opacity="1"><g transform="translate(860.145233, 358.878694)"><g><path d="M 27.6875 0 C 23.800781 0 20.503906 -1.347656 17.796875 -4.046875 C 15.085938 -6.753906 13.734375 -10.050781 13.734375 -13.9375 L 13.734375 -152.5625 C 13.734375 -156.582031 15.085938 -159.910156 17.796875 -162.546875 C 20.503906 -165.179688 23.800781 -166.5 27.6875 -166.5 L 45.375 -166.5 C 49.394531 -166.5 52.722656 -165.179688 55.359375 -162.546875 C 57.992188 -159.910156 59.3125 -156.582031 59.3125 -152.5625 L 59.3125 -13.9375 C 59.3125 -10.050781 57.992188 -6.753906 55.359375 -4.046875 C 52.722656 -1.347656 49.394531 0 45.375 0 Z M 27.6875 0 "/></g></g></g><g fill="#ff3131" fill-opacity="1"><g transform="translate(912.59245, 358.878694)"><g><path d="M 27.6875 0 C 23.800781 0 20.503906 -1.347656 17.796875 -4.046875 C 15.085938 -6.753906 13.734375 -10.050781 13.734375 -13.9375 L 13.734375 -152.5625 C 13.734375 -156.582031 15.085938 -159.910156 17.796875 -162.546875 C 20.503906 -165.179688 23.800781 -166.5 27.6875 -166.5 L 111.96875 -166.5 C 115.988281 -166.5 119.316406 -165.109375 121.953125 -162.328125 C 124.597656 -159.554688 125.921875 -156.226562 125.921875 -152.34375 L 125.921875 -51.40625 C 125.921875 -47.519531 127.238281 -44.257812 129.875 -41.625 C 132.507812 -38.988281 135.695312 -37.671875 139.4375 -37.671875 C 143.320312 -37.671875 146.582031 -38.988281 149.21875 -41.625 C 151.863281 -44.257812 153.1875 -47.519531 153.1875 -51.40625 L 153.1875 -152.5625 C 153.1875 -156.582031 154.535156 -159.910156 157.234375 -162.546875 C 159.941406 -165.179688 163.238281 -166.5 167.125 -166.5 L 184.8125 -166.5 C 188.832031 -166.5 192.160156 -165.179688 194.796875 -162.546875 C 197.441406 -159.910156 198.765625 -156.582031 198.765625 -152.5625 L 198.765625 -13.9375 C 198.765625 -10.050781 197.441406 -6.753906 194.796875 -4.046875 C 192.160156 -1.347656 188.832031 0 184.8125 0 L 100.53125 0 C 96.644531 0 93.347656 -1.382812 90.640625 -4.15625 C 87.929688 -6.9375 86.578125 -10.269531 86.578125 -14.15625 L 86.578125 -115.296875 C 86.578125 -119.046875 85.257812 -122.238281 82.625 -124.875 C 79.988281 -127.507812 76.726562 -128.828125 72.84375 -128.828125 C 69.09375 -128.828125 65.898438 -127.507812 63.265625 -124.875 C 60.628906 -122.238281 59.3125 -119.046875 59.3125 -115.296875 L 59.3125 -13.9375 C 59.3125 -10.050781 57.992188 -6.753906 55.359375 -4.046875 C 52.722656 -1.347656 49.394531 0 45.375 0 Z M 27.6875 0 "/></g></g></g><g fill="#ff3131" fill-opacity="1"><g transform="translate(1104.483218, 358.878694)"><g><path d="M 73.265625 0 C 64.242188 0 59.734375 -4.578125 59.734375 -13.734375 L 59.734375 -115.296875 C 59.734375 -119.046875 58.378906 -122.238281 55.671875 -124.875 C 52.960938 -127.507812 49.664062 -128.828125 45.78125 -128.828125 L 27.46875 -128.828125 C 18.3125 -128.828125 13.734375 -133.40625 13.734375 -142.5625 L 13.734375 -152.96875 C 13.734375 -162.125 18.3125 -166.703125 27.46875 -166.703125 L 137.578125 -166.5 C 146.734375 -166.5 151.3125 -161.921875 151.3125 -152.765625 L 151.3125 -142.5625 C 151.3125 -133.40625 146.734375 -128.828125 137.578125 -128.828125 L 119.046875 -128.828125 C 115.296875 -128.828125 112.066406 -127.507812 109.359375 -124.875 C 106.660156 -122.238281 105.3125 -119.046875 105.3125 -115.296875 L 105.3125 -13.53125 C 105.3125 -4.507812 100.734375 0 91.578125 0 Z M 73.265625 0 "/></g></g></g><g fill="#ffffff" fill-opacity="1"><g transform="translate(183.10652, 558.378684)"><g><path d="M 64.734375 0 C 54.878906 0 46.097656 -2.179688 38.390625 -6.546875 C 30.691406 -10.921875 24.65625 -16.957031 20.28125 -24.65625 C 15.914062 -32.363281 13.734375 -41.140625 13.734375 -50.984375 L 13.734375 -115.515625 C 13.734375 -125.359375 15.914062 -134.128906 20.28125 -141.828125 C 24.65625 -149.535156 30.691406 -155.570312 38.390625 -159.9375 C 46.097656 -164.3125 54.878906 -166.5 64.734375 -166.5 L 149.4375 -166.5 C 153.457031 -166.5 156.785156 -165.179688 159.421875 -162.546875 C 162.054688 -159.910156 163.375 -156.582031 163.375 -152.5625 L 163.375 -142.5625 C 163.375 -138.675781 162.019531 -135.414062 159.3125 -132.78125 C 156.613281 -130.144531 153.320312 -128.828125 149.4375 -128.828125 L 72.84375 -128.828125 C 69.09375 -128.828125 65.898438 -127.507812 63.265625 -124.875 C 60.628906 -122.238281 59.3125 -118.976562 59.3125 -115.09375 L 59.3125 -51.40625 C 59.3125 -47.519531 60.628906 -44.257812 63.265625 -41.625 C 65.898438 -38.988281 69.09375 -37.671875 72.84375 -37.671875 L 149.4375 -37.671875 C 153.457031 -37.671875 156.785156 -36.351562 159.421875 -33.71875 C 162.054688 -31.082031 163.375 -27.75 163.375 -23.71875 L 163.375 -13.9375 C 163.375 -10.050781 162.054688 -6.753906 159.421875 -4.046875 C 156.785156 -1.347656 153.457031 0 149.4375 0 Z M 64.734375 0 "/></g></g></g><g fill="#ffffff" fill-opacity="1"><g transform="translate(339.616093, 558.378684)"><g><path d="M 64.734375 0 C 54.878906 0 46.097656 -2.179688 38.390625 -6.546875 C 30.691406 -10.921875 24.65625 -16.957031 20.28125 -24.65625 C 15.914062 -32.363281 13.734375 -41.140625 13.734375 -50.984375 L 13.734375 -115.515625 C 13.734375 -125.359375 15.914062 -134.128906 20.28125 -141.828125 C 24.65625 -149.535156 30.691406 -155.570312 38.390625 -159.9375 C 46.097656 -164.3125 54.878906 -166.5 64.734375 -166.5 L 81.171875 -166.5 C 91.023438 -166.5 99.800781 -164.3125 107.5 -159.9375 C 115.195312 -155.570312 121.226562 -149.535156 125.59375 -141.828125 C 129.96875 -134.128906 132.15625 -125.359375 132.15625 -115.515625 L 132.15625 -50.984375 C 132.15625 -41.140625 129.96875 -32.363281 125.59375 -24.65625 C 121.226562 -16.957031 115.195312 -10.921875 107.5 -6.546875 C 99.800781 -2.179688 91.023438 0 81.171875 0 Z M 72.84375 -37.671875 C 76.726562 -37.671875 79.988281 -38.988281 82.625 -41.625 C 85.257812 -44.257812 86.578125 -47.519531 86.578125 -51.40625 L 86.578125 -115.09375 C 86.578125 -118.976562 85.257812 -122.238281 82.625 -124.875 C 79.988281 -127.507812 76.726562 -128.828125 72.84375 -128.828125 C 69.09375 -128.828125 65.898438 -127.507812 63.265625 -124.875 C 60.628906 -122.238281 59.3125 -118.976562 59.3125 -115.09375 L 59.3125 -51.40625 C 59.3125 -47.519531 60.628906 -44.257812 63.265625 -41.625 C 65.898438 -38.988281 69.09375 -37.671875 72.84375 -37.671875 Z M 72.84375 -37.671875 "/></g></g></g><g fill="#ffffff" fill-opacity="1"><g transform="translate(464.906942, 558.378684)"><g><path d="M 27.6875 0 C 23.800781 0 20.503906 -1.347656 17.796875 -4.046875 C 15.085938 -6.753906 13.734375 -10.050781 13.734375 -13.9375 L 13.734375 -152.5625 C 13.734375 -156.582031 15.085938 -159.910156 17.796875 -162.546875 C 20.503906 -165.179688 23.800781 -166.5 27.6875 -166.5 L 81.796875 -166.5 C 85.816406 -166.5 89.144531 -165.179688 91.78125 -162.546875 C 94.414062 -159.910156 95.734375 -156.582031 95.734375 -152.5625 L 95.734375 -149.015625 C 95.734375 -145.265625 97.050781 -142.070312 99.6875 -139.4375 C 102.320312 -136.800781 105.515625 -135.484375 109.265625 -135.484375 C 113.148438 -135.484375 116.410156 -136.800781 119.046875 -139.4375 C 121.679688 -142.070312 123 -145.265625 123 -149.015625 L 123 -152.5625 C 123 -156.582031 124.351562 -159.910156 127.0625 -162.546875 C 129.769531 -165.179688 133.066406 -166.5 136.953125 -166.5 L 191.0625 -166.5 C 195.082031 -166.5 198.410156 -165.179688 201.046875 -162.546875 C 203.679688 -159.910156 205 -156.582031 205 -152.5625 L 205 -13.9375 C 205 -10.050781 203.679688 -6.753906 201.046875 -4.046875 C 198.410156 -1.347656 195.082031 0 191.0625 0 L 173.375 0 C 169.488281 0 166.191406 -1.347656 163.484375 -4.046875 C 160.773438 -6.753906 159.421875 -10.050781 159.421875 -13.9375 L 159.421875 -115.09375 C 159.421875 -118.976562 158.101562 -122.238281 155.46875 -124.875 C 152.832031 -127.507812 149.570312 -128.828125 145.6875 -128.828125 C 141.9375 -128.828125 138.742188 -127.507812 136.109375 -124.875 C 133.472656 -122.238281 132.15625 -118.976562 132.15625 -115.09375 L 132.15625 -14.359375 C 132.15625 -10.472656 130.835938 -7.109375 128.203125 -4.265625 C 125.566406 -1.421875 122.238281 0 118.21875 0 L 100.53125 0 C 96.5 0 93.164062 -1.382812 90.53125 -4.15625 C 87.894531 -6.9375 86.578125 -10.335938 86.578125 -14.359375 L 86.578125 -115.09375 C 86.578125 -118.976562 85.257812 -122.238281 82.625 -124.875 C 79.988281 -127.507812 76.726562 -128.828125 72.84375 -128.828125 C 69.09375 -128.828125 65.898438 -127.507812 63.265625 -124.875 C 60.628906 -122.238281 59.3125 -118.976562 59.3125 -115.09375 L 59.3125 -13.9375 C 59.3125 -10.050781 57.992188 -6.753906 55.359375 -4.046875 C 52.722656 -1.347656 49.394531 0 45.375 0 Z M 27.6875 0 "/></g></g></g><g fill="#ffffff" fill-opacity="1"><g transform="translate(663.0414, 558.378684)"><g><path d="M 27.6875 0 C 23.800781 0 20.503906 -1.347656 17.796875 -4.046875 C 15.085938 -6.753906 13.734375 -10.050781 13.734375 -13.9375 L 13.734375 -152.5625 C 13.734375 -156.582031 15.085938 -159.910156 17.796875 -162.546875 C 20.503906 -165.179688 23.800781 -166.5 27.6875 -166.5 L 114.46875 -166.5 C 123.90625 -166.5 132.300781 -164.378906 139.65625 -160.140625 C 147.007812 -155.910156 152.800781 -150.117188 157.03125 -142.765625 C 161.257812 -135.421875 163.375 -127.03125 163.375 -117.59375 L 163.375 -114.046875 C 163.375 -104.617188 161.257812 -96.226562 157.03125 -88.875 C 152.800781 -81.519531 147.007812 -75.722656 139.65625 -71.484375 C 132.300781 -67.253906 123.90625 -65.140625 114.46875 -65.140625 L 73.046875 -65.140625 C 69.304688 -65.140625 66.082031 -63.785156 63.375 -61.078125 C 60.664062 -58.378906 59.3125 -55.15625 59.3125 -51.40625 L 59.3125 -13.9375 C 59.3125 -10.050781 57.992188 -6.753906 55.359375 -4.046875 C 52.722656 -1.347656 49.394531 0 45.375 0 Z M 72.84375 -101.5625 L 104.0625 -101.5625 C 107.945312 -101.5625 111.207031 -102.878906 113.84375 -105.515625 C 116.476562 -108.148438 117.796875 -111.34375 117.796875 -115.09375 C 117.796875 -118.976562 116.476562 -122.238281 113.84375 -124.875 C 111.207031 -127.507812 107.945312 -128.828125 104.0625 -128.828125 L 72.84375 -128.828125 C 69.09375 -128.828125 65.898438 -127.507812 63.265625 -124.875 C 60.628906 -122.238281 59.3125 -118.976562 59.3125 -115.09375 C 59.3125 -111.34375 60.628906 -108.148438 63.265625 -105.515625 C 65.898438 -102.878906 69.09375 -101.5625 72.84375 -101.5625 Z M 72.84375 -101.5625 "/></g></g></g><g fill="#ffffff" fill-opacity="1"><g transform="translate(819.550972, 558.378684)"><g><path d="M 27.6875 0 C 23.800781 0 20.503906 -1.347656 17.796875 -4.046875 C 15.085938 -6.753906 13.734375 -10.050781 13.734375 -13.9375 L 13.734375 -115.515625 C 13.734375 -125.359375 15.914062 -134.128906 20.28125 -141.828125 C 24.65625 -149.535156 30.691406 -155.570312 38.390625 -159.9375 C 46.097656 -164.3125 54.878906 -166.5 64.734375 -166.5 L 81.171875 -166.5 C 91.023438 -166.5 99.800781 -164.3125 107.5 -159.9375 C 115.195312 -155.570312 121.226562 -149.535156 125.59375 -141.828125 C 129.96875 -134.128906 132.15625 -125.359375 132.15625 -115.515625 L 132.15625 -13.9375 C 132.15625 -10.050781 130.835938 -6.753906 128.203125 -4.046875 C 125.566406 -1.347656 122.238281 0 118.21875 0 L 100.53125 0 C 96.644531 0 93.347656 -1.347656 90.640625 -4.046875 C 87.929688 -6.753906 86.578125 -10.050781 86.578125 -13.9375 L 86.578125 -38.71875 C 86.578125 -42.457031 85.257812 -45.644531 82.625 -48.28125 C 79.988281 -50.914062 76.726562 -52.234375 72.84375 -52.234375 C 69.09375 -52.234375 65.898438 -50.914062 63.265625 -48.28125 C 60.628906 -45.644531 59.3125 -42.382812 59.3125 -38.5 L 59.3125 -13.9375 C 59.3125 -10.050781 57.992188 -6.753906 55.359375 -4.046875 C 52.722656 -1.347656 49.394531 0 45.375 0 Z M 72.84375 -79.71875 C 76.726562 -79.71875 79.988281 -81.035156 82.625 -83.671875 C 85.257812 -86.304688 86.578125 -89.492188 86.578125 -93.234375 L 86.578125 -115.09375 C 86.578125 -118.976562 85.257812 -122.238281 82.625 -124.875 C 79.988281 -127.507812 76.726562 -128.828125 72.84375 -128.828125 C 69.09375 -128.828125 65.898438 -127.507812 63.265625 -124.875 C 60.628906 -122.238281 59.3125 -118.976562 59.3125 -115.09375 L 59.3125 -93.234375 C 59.3125 -89.492188 60.628906 -86.304688 63.265625 -83.671875 C 65.898438 -81.035156 69.09375 -79.71875 72.84375 -79.71875 Z M 72.84375 -79.71875 "/></g></g></g><g fill="#ffffff" fill-opacity="1"><g transform="translate(944.841844, 558.378684)"><g><path d="M 27.6875 0 C 23.800781 0 20.503906 -1.347656 17.796875 -4.046875 C 15.085938 -6.753906 13.734375 -10.050781 13.734375 -13.9375 L 13.734375 -152.5625 C 13.734375 -156.582031 15.085938 -159.910156 17.796875 -162.546875 C 20.503906 -165.179688 23.800781 -166.5 27.6875 -166.5 L 111.96875 -166.5 C 115.988281 -166.5 119.316406 -165.109375 121.953125 -162.328125 C 124.597656 -159.554688 125.921875 -156.226562 125.921875 -152.34375 L 125.921875 -51.40625 C 125.921875 -47.519531 127.238281 -44.257812 129.875 -41.625 C 132.507812 -38.988281 135.695312 -37.671875 139.4375 -37.671875 C 143.320312 -37.671875 146.582031 -38.988281 149.21875 -41.625 C 151.863281 -44.257812 153.1875 -47.519531 153.1875 -51.40625 L 153.1875 -152.5625 C 153.1875 -156.582031 154.535156 -159.910156 157.234375 -162.546875 C 159.941406 -165.179688 163.238281 -166.5 167.125 -166.5 L 184.8125 -166.5 C 188.832031 -166.5 192.160156 -165.179688 194.796875 -162.546875 C 197.441406 -159.910156 198.765625 -156.582031 198.765625 -152.5625 L 198.765625 -13.9375 C 198.765625 -10.050781 197.441406 -6.753906 194.796875 -4.046875 C 192.160156 -1.347656 188.832031 0 184.8125 0 L 100.53125 0 C 96.644531 0 93.347656 -1.382812 90.640625 -4.15625 C 87.929688 -6.9375 86.578125 -10.269531 86.578125 -14.15625 L 86.578125 -115.296875 C 86.578125 -119.046875 85.257812 -122.238281 82.625 -124.875 C 79.988281 -127.507812 76.726562 -128.828125 72.84375 -128.828125 C 69.09375 -128.828125 65.898438 -127.507812 63.265625 -124.875 C 60.628906 -122.238281 59.3125 -119.046875 59.3125 -115.296875 L 59.3125 -13.9375 C 59.3125 -10.050781 57.992188 -6.753906 55.359375 -4.046875 C 52.722656 -1.347656 49.394531 0 45.375 0 Z M 27.6875 0 "/></g></g></g><g fill="#ffffff" fill-opacity="1"><g transform="translate(1136.732567, 558.378684)"><g><path d="M 64.3125 0 C 60.425781 0 57.128906 -1.347656 54.421875 -4.046875 C 51.710938 -6.753906 50.359375 -10.050781 50.359375 -13.9375 L 50.359375 -61.390625 C 50.359375 -65.140625 49.039062 -68.367188 46.40625 -71.078125 C 43.769531 -73.785156 40.507812 -75.140625 36.625 -75.140625 L 27.6875 -75.140625 C 23.800781 -75.140625 20.503906 -76.488281 17.796875 -79.1875 C 15.085938 -81.894531 13.734375 -85.257812 13.734375 -89.28125 L 13.734375 -152.96875 C 13.734375 -156.851562 15.085938 -160.078125 17.796875 -162.640625 C 20.503906 -165.210938 23.800781 -166.5 27.6875 -166.5 L 45.375 -166.5 C 49.257812 -166.5 52.550781 -165.144531 55.25 -162.4375 C 57.957031 -159.738281 59.3125 -156.375 59.3125 -152.34375 L 59.3125 -115.515625 C 59.3125 -111.628906 60.664062 -108.332031 63.375 -105.625 C 66.082031 -102.914062 69.304688 -101.5625 73.046875 -101.5625 C 76.929688 -101.5625 80.226562 -102.914062 82.9375 -105.625 C 85.644531 -108.332031 87 -111.628906 87 -115.515625 L 87 -152.34375 C 87 -156.375 88.347656 -159.738281 91.046875 -162.4375 C 93.753906 -165.144531 97.050781 -166.5 100.9375 -166.5 L 118.625 -166.5 C 122.375 -166.5 125.632812 -165.210938 128.40625 -162.640625 C 131.1875 -160.078125 132.578125 -156.851562 132.578125 -152.96875 L 132.578125 -89.28125 C 132.578125 -85.257812 131.257812 -81.894531 128.625 -79.1875 C 125.988281 -76.488281 122.65625 -75.140625 118.625 -75.140625 L 109.46875 -75.140625 C 105.726562 -75.140625 102.539062 -73.816406 99.90625 -71.171875 C 97.269531 -68.535156 95.953125 -65.273438 95.953125 -61.390625 L 95.953125 -13.9375 C 95.953125 -10.050781 94.628906 -6.753906 91.984375 -4.046875 C 89.347656 -1.347656 86.019531 0 82 0 Z M 64.3125 0 "/></g></g></g></svg>